<?xml version="1.0" standalone="no"?>
<!DOCTYPE svg PUBLIC "-//W3C//DTD SVG 20010904//EN"
 "http://www.w3.org/TR/2001/REC-SVG-20010904/DTD/svg10.dtd">
<svg version="1.0" xmlns="http://www.w3.org/2000/svg"
 width="1024.000000pt" height="1024.000000pt" viewBox="0 0 1024.000000 1024.000000"
 preserveAspectRatio="xMidYMid meet">
<metadata>
Created by potrace 1.11, written by Peter Selinger 2001-2013
</metadata>
<g transform="translate(0.000000,1024.000000) scale(0.100000,-0.100000)"
fill="#000000" stroke="none">
<path d="M4995 10003 c-77 -104 -144 -192 -148 -198 -4 -5 -44 -59 -88 -120
-297 -407 -535 -751 -843 -1215 -191 -289 -318 -484 -414 -641 -18 -30 -56
-90 -84 -134 -122 -193 -406 -682 -598 -1030 -126 -229 -395 -781 -475 -975
-15 -36 -33 -78 -40 -95 -8 -16 -52 -126 -99 -244 l-85 -213 33 -97 c63 -182
180 -470 277 -679 22 -46 39 -86 39 -89 0 -6 225 -455 290 -578 107 -204 261
-479 386 -692 11 -17 37 -62 58 -99 244 -425 779 -1248 1191 -1832 110 -156
207 -294 215 -305 34 -50 376 -516 409 -558 20 -25 45 -58 56 -73 11 -16 29
-40 41 -54 l21 -25 43 58 c24 32 49 66 56 74 38 46 401 542 510 697 197 281
337 484 415 599 52 77 99 145 104 151 11 13 158 236 190 288 11 18 52 82 91
142 83 127 329 515 354 559 33 57 143 240 165 275 45 69 271 469 387 685 137
253 335 652 418 840 9 22 24 56 33 75 8 19 24 55 35 80 41 94 141 349 178 456
l38 110 -33 85 c-18 46 -36 93 -41 104 -5 11 -57 133 -116 270 -205 485 -404
879 -749 1489 -15 28 -41 73 -58 100 -17 28 -35 60 -41 71 -11 19 -97 165
-116 195 -5 8 -58 96 -119 195 -60 99 -128 210 -152 247 -24 38 -80 124 -124
194 -161 253 -465 707 -662 989 -35 50 -80 115 -100 145 -21 30 -41 60 -46 65
-4 6 -58 80 -119 165 -197 277 -534 730 -541 730 -2 0 -65 -84 -142 -187z
m260 -1274 c61 -78 115 -146 120 -152 101 -118 705 -929 705 -947 0 -4 -31 -2
-70 6 -38 7 -97 16 -131 19 -33 4 -68 8 -77 10 -9 1 -53 6 -97 10 -44 3 -96 8
-115 10 -159 15 -581 21 -750 11 -184 -12 -264 -18 -279 -21 -9 -1 -45 -6 -81
-10 -36 -3 -76 -8 -90 -10 -14 -2 -43 -7 -65 -9 -22 -3 -61 -9 -87 -14 -27 -5
-48 -7 -48 -5 0 8 335 470 349 483 3 3 19 23 34 46 15 22 35 49 45 60 9 10 58
72 107 138 50 65 99 130 110 145 38 51 209 266 215 271 3 3 23 26 44 53 21 26
41 47 45 47 3 -1 56 -64 116 -141z m220 -1263 c61 -4 126 -9 145 -11 19 -2 62
-7 95 -10 91 -9 327 -41 360 -49 6 -2 31 -6 56 -10 58 -10 57 -9 110 -86 24
-36 46 -67 49 -70 13 -12 346 -519 440 -670 113 -180 280 -459 280 -467 0 -3
8 -17 19 -31 10 -15 38 -63 61 -107 24 -44 61 -111 82 -150 101 -185 260 -513
318 -659 l31 -77 -30 -72 c-70 -168 -191 -418 -309 -637 -140 -261 -165 -305
-174 -308 -4 -2 -8 -8 -8 -13 0 -6 -36 -71 -81 -146 -385 -647 -986 -1514
-1501 -2168 -4 -5 -71 -90 -149 -187 l-141 -177 -27 32 c-14 18 -28 34 -31 37
-7 7 -107 134 -170 215 -30 39 -59 75 -64 81 -16 17 -172 223 -345 453 -411
551 -786 1104 -1103 1624 -43 71 -78 130 -78 131 0 2 -24 43 -53 92 -51 86
-70 120 -200 359 -78 145 -203 402 -271 559 l-56 126 21 53 c26 65 170 377
208 449 15 29 61 116 101 193 40 77 84 157 97 177 12 21 23 40 23 43 0 8 168
292 274 463 55 90 110 177 121 195 17 28 176 274 205 317 102 153 266 389 278
402 17 16 111 35 317 64 28 3 59 8 70 10 11 2 51 6 90 10 38 3 86 7 105 9 19
2 91 7 160 11 69 3 126 7 127 8 6 5 453 -2 548 -8z"/>
</g>
</svg>
